<svg width="500" height="500" viewBox="0 0 500 500" fill="none" xmlns="http://www.w3.org/2000/svg">
<g id="Group 1">
<rect id="Rectangle 1" width="500" height="500" fill="#007AB3"/>
<rect id="Rectangle 2" x="331" y="340" width="50" height="50" fill="white"/>
<rect id="Rectangle 3" x="260" y="105" width="50" height="285" fill="white"/>
<circle id="Ellipse 1" cx="200" cy="315" r="80" fill="white"/>
<g id="Group">
<path id="Vector" fill-rule="evenodd" clip-rule="evenodd" d="M168.358 285.607L192.417 292.302C192.417 292.302 183.678 301.154 194.345 308.984C194.628 308.907 197.335 303.276 192.933 302.95L192.793 302.187L201.267 298.089C201.267 298.089 207.169 301.154 204.219 307.395C204.219 307.395 214.625 301.267 202.203 293.095L227.046 281C227.046 281 263.168 329.707 204 349.485C204 349.485 214.648 322.559 202.389 322.723C202.389 322.723 191.905 321.698 202.856 342.13C202.856 342.13 159.052 345.235 162.158 305.027C162.158 305.027 163.629 293.095 167.388 287.211L168.288 285.77L168.358 285.607Z" fill="#007AB3"/>
</g>
</g>
</svg>
